# xmcd CD database file
#
# Track frame offsets:
#	150
#	22410
#	41003
#	63335
#
# Disc length: 1091 seconds
#
# Revision: 1
# Processed by: cddbd v1.5.1PL0 Copyright (c) Steve Scherf et al.
# Submitted via: CDex 1.51
#
DISCID=34044104
DTITLE=椎名へきる - だめよ!だめよ!だめよ!!
DYEAR=2004
DGENRE=Rock
TTITLE0=だめよ!だめよ!だめよ!!
TTITLE1=やさしいひとになりましょう
TTITLE2=だめよ!だめよ!だめよ!! <オリジナル・カラオケ>
TTITLE3=やさしいひとになりましょう <オリジナル・カラオケ>
EXTD=YEAR: 2004
EXTT0=
EXTT1=
EXTT2=
EXTT3=
PLAYORDER=
